<?xml version="1.0" encoding="utf-8"?>
<svg xmlns="http://www.w3.org/2000/svg" height="512pt" version="1.1" viewBox="0 0 512 512" width="512pt">
<path d="M 0.00 0.00 L 512.00 0.00 L 512.00 512.00 L 0.00 512.00 L 0.00 0.00 Z" fill="transparent" opacity="1.00" stroke="transparent" stroke-width="0.25"/>
<path d="M 181.09 99.30 C 221.75 79.13 270.53 76.84 313.27 91.79 C 319.18 94.13 325.23 96.24 330.82 99.30 C 331.90 99.78 332.98 100.28 334.06 100.78 C 341.27 104.43 348.19 108.63 354.81 113.28 C 356.17 114.20 357.49 115.18 358.81 116.18 C 380.51 132.14 398.69 153.11 410.74 177.25 C 411.48 178.51 412.12 179.83 412.70 181.18 C 432.69 221.90 434.94 270.53 420.19 313.30 C 418.07 318.98 415.79 324.59 413.20 330.08 C 412.39 331.64 411.64 333.23 410.79 334.77 C 407.37 341.78 403.18 348.40 398.75 354.80 C 392.45 363.99 385.12 372.41 377.15 380.17 C 371.36 385.75 365.36 391.13 358.81 395.81 C 357.48 396.81 356.15 397.80 354.78 398.73 C 348.36 403.11 341.78 407.34 334.79 410.77 C 333.51 411.48 332.19 412.13 330.84 412.70 C 284.52 435.59 227.49 435.60 181.16 412.72 C 179.81 412.14 178.49 411.52 177.21 410.80 C 165.81 405.03 155.11 397.85 145.24 389.74 C 136.92 382.79 129.17 375.14 122.24 366.79 C 116.55 359.98 111.49 352.68 106.79 345.16 C 104.32 340.86 101.84 336.56 99.74 332.07 C 72.96 278.55 77.03 211.05 110.30 161.27 C 126.99 135.60 150.69 114.71 177.89 100.71 C 178.95 100.24 180.01 99.75 181.09 99.30 Z" fill="#000000" opacity="1.00" stroke="#000000" stroke-width="0.25"/>
<path d="M 202.83 108.70 C 217.84 103.38 233.61 100.25 249.53 99.52 C 249.49 117.29 249.57 135.06 249.50 152.83 C 253.35 152.95 257.24 152.58 261.07 153.17 C 261.43 153.00 262.16 152.67 262.52 152.51 C 262.23 134.82 262.37 117.12 262.39 99.43 C 278.30 100.42 294.17 103.25 309.15 108.81 C 313.23 110.33 317.25 112.00 321.21 113.79 C 352.11 128.13 378.32 152.59 394.27 182.74 C 397.73 189.22 400.66 195.95 403.31 202.80 C 406.26 210.94 408.37 219.33 410.18 227.79 C 411.20 234.98 412.18 242.19 412.46 249.46 C 394.58 249.57 376.69 249.48 358.81 249.55 C 359.27 253.84 359.21 258.16 358.83 262.46 C 376.70 262.57 394.58 262.46 412.46 262.52 C 411.80 276.87 409.28 291.14 404.77 304.77 C 404.32 306.27 403.82 307.75 403.33 309.23 C 399.04 320.39 393.78 331.21 387.24 341.23 C 375.15 359.45 359.40 375.14 341.18 387.22 C 340.36 387.72 339.53 388.22 338.71 388.72 C 335.65 390.73 332.44 392.46 329.26 394.26 C 322.74 397.63 316.06 400.70 309.15 403.21 C 294.17 408.74 278.32 411.70 262.39 412.48 C 262.38 394.75 262.28 377.02 262.46 359.29 C 258.14 359.23 253.82 359.22 249.50 359.28 C 249.59 377.04 249.58 394.79 249.52 412.55 C 233.62 411.63 217.83 408.62 202.82 403.25 C 176.40 393.66 152.77 376.71 134.93 355.02 C 113.38 329.16 100.86 296.12 99.50 262.51 C 117.24 262.54 134.98 262.48 152.72 262.52 C 152.83 258.19 152.83 253.85 152.72 249.51 C 134.98 249.60 117.24 249.58 99.50 249.49 C 100.09 236.17 102.22 222.89 106.15 210.14 C 114.01 185.16 127.99 162.01 146.97 143.92 C 162.80 128.36 182.03 116.40 202.83 108.70 Z" fill="#ffffff" opacity="1.00" stroke="#ffffff" stroke-width="0.25"/>
<path d="M 231.77 192.85 C 235.36 191.42 238.93 189.36 242.93 189.60 C 254.33 189.67 265.74 189.73 277.14 189.69 C 279.18 190.73 280.97 192.53 280.79 195.01 C 280.92 214.79 280.84 234.58 280.81 254.36 C 282.77 254.43 284.74 254.49 286.72 254.58 C 287.30 252.16 286.00 249.21 288.15 247.35 C 288.68 247.49 289.75 247.77 290.28 247.91 C 290.36 250.10 290.39 252.29 290.40 254.48 C 293.11 254.50 295.83 254.51 298.55 254.50 C 298.57 252.23 298.58 249.96 298.66 247.70 C 299.30 247.65 300.58 247.54 301.22 247.49 C 302.50 249.47 301.60 252.11 301.76 254.35 C 304.61 254.56 307.47 254.52 310.32 254.40 C 310.32 252.12 310.35 249.85 310.57 247.58 C 311.52 247.54 312.48 247.50 313.44 247.47 C 313.70 249.77 313.69 252.08 313.66 254.39 C 316.19 254.47 318.76 254.29 321.27 254.77 C 321.37 255.43 321.57 256.76 321.67 257.42 C 319.02 257.82 316.35 257.80 313.69 257.68 C 313.61 259.94 313.57 262.21 313.42 264.47 C 312.45 264.44 311.49 264.41 310.53 264.37 C 310.41 262.16 310.35 259.95 310.28 257.75 C 307.66 257.79 305.04 257.82 302.43 257.54 C 301.28 259.78 302.55 262.68 301.08 264.67 C 297.04 265.04 299.04 260.17 298.47 257.68 C 295.77 257.76 293.07 257.75 290.38 257.67 C 290.31 259.82 290.28 261.98 290.24 264.14 C 289.75 264.29 288.76 264.61 288.27 264.77 C 287.91 264.41 287.19 263.67 286.83 263.31 C 286.79 261.43 286.74 259.57 286.65 257.70 C 284.89 257.70 283.13 257.70 281.37 257.66 C 281.12 258.68 280.95 259.70 280.86 260.75 C 280.75 279.63 280.99 298.51 280.75 317.39 C 289.84 317.67 298.95 317.37 308.05 317.44 C 313.85 317.37 319.66 317.70 325.44 317.08 C 316.91 316.36 308.38 315.56 299.89 314.46 C 297.66 314.41 295.45 312.46 295.66 310.13 C 295.51 304.16 295.72 298.19 295.87 292.23 C 296.18 290.07 296.16 287.37 298.13 285.99 C 301.27 285.11 304.56 284.87 307.73 284.04 C 312.97 282.58 318.44 283.61 323.76 284.06 C 340.24 285.39 356.69 287.11 373.17 288.50 C 374.64 288.51 376.03 289.02 377.34 289.65 C 379.31 292.40 378.51 295.88 378.64 299.03 C 378.50 303.98 378.68 308.95 378.39 313.91 C 378.39 315.48 377.21 316.65 375.84 317.24 C 380.00 317.70 384.19 317.28 388.36 317.73 C 388.60 319.29 388.67 320.87 388.56 322.45 C 360.37 322.91 332.16 322.52 303.96 322.64 C 247.29 322.64 190.62 322.63 133.95 322.65 C 130.17 322.64 126.38 322.76 122.61 322.40 C 122.72 320.76 121.68 318.45 123.70 317.61 C 127.92 317.23 132.17 317.81 136.38 317.21 C 135.95 316.97 135.09 316.50 134.67 316.27 C 133.21 311.64 133.96 306.73 133.76 301.96 C 133.95 297.92 133.07 293.68 134.75 289.86 C 135.77 289.40 136.72 288.63 137.90 288.60 C 156.94 287.28 175.95 285.53 195.00 284.24 C 201.11 283.04 207.03 285.54 212.94 286.67 C 215.78 287.22 216.63 290.42 216.63 292.92 C 216.71 298.62 216.69 304.32 216.70 310.02 C 216.83 311.61 216.02 313.03 215.43 314.45 C 206.57 316.11 197.49 316.11 188.54 317.05 C 202.59 318.00 216.69 317.14 230.76 317.53 C 231.34 308.70 231.17 299.84 231.04 291.00 C 231.36 279.94 230.94 268.87 231.24 257.82 C 229.09 257.74 226.93 257.74 224.78 257.80 C 224.86 259.77 224.98 261.74 224.76 263.71 C 224.01 264.87 222.70 264.39 221.60 264.27 C 221.55 262.07 221.52 259.87 221.49 257.68 C 218.76 257.75 216.04 257.74 213.32 257.64 C 213.24 259.50 213.19 261.36 213.18 263.22 C 212.89 263.60 212.31 264.37 212.02 264.75 C 211.45 264.61 210.30 264.33 209.72 264.18 C 209.66 262.01 209.63 259.83 209.55 257.66 C 207.12 257.74 204.69 257.74 202.27 257.65 C 202.28 256.60 202.30 255.55 202.32 254.50 C 204.74 254.45 207.17 254.43 209.61 254.44 C 209.64 252.20 209.67 249.96 209.72 247.72 C 214.21 246.18 213.14 251.87 213.23 254.52 C 215.99 254.51 218.75 254.49 221.51 254.47 C 221.53 252.21 221.56 249.96 221.63 247.71 C 226.19 246.45 224.50 252.06 225.16 254.55 C 227.17 254.48 229.20 254.44 231.22 254.37 C 230.93 234.83 231.51 215.28 230.88 195.76 C 231.17 194.79 231.46 193.82 231.77 192.85 Z" fill="#010101" opacity="1.00" stroke="#010101" stroke-width="0.25"/>
<path d="M 241.79 193.65 C 242.53 193.63 244.01 193.58 244.75 193.56 C 245.02 208.37 244.73 223.19 244.95 238.00 C 244.81 263.35 244.89 288.70 244.86 314.04 C 244.85 315.17 244.77 316.30 244.62 317.42 C 243.88 317.42 242.39 317.41 241.64 317.40 C 241.69 276.15 241.64 234.90 241.79 193.65 Z" fill="#ffffff" opacity="1.00" stroke="#ffffff" stroke-width="0.25"/>
<path d="M 265.96 195.71 C 266.34 198.47 265.77 201.22 265.78 203.99 C 266.16 217.99 264.73 231.95 264.09 245.93 C 263.36 254.01 263.34 262.15 262.40 270.22 C 262.37 265.14 262.22 260.07 261.92 255.01 C 262.01 238.28 263.63 221.62 264.71 204.93 C 264.98 201.84 265.48 198.77 265.96 195.71 Z" fill="#ffffff" opacity="1.00" stroke="#ffffff" stroke-width="0.25"/>
<path d="M 252.95 225.25 C 252.09 215.96 252.21 206.57 253.09 197.28 C 254.46 206.50 255.04 216.12 252.95 225.25 Z" fill="#feffff" opacity="1.00" stroke="#feffff" stroke-width="0.25"/>
<path d="M 271.93 242.63 C 273.10 251.80 272.93 261.11 271.65 270.25 C 270.51 261.08 270.40 251.77 271.93 242.63 Z" fill="#feffff" opacity="1.00" stroke="#feffff" stroke-width="0.25"/>
<path d="M 253.12 275.05 C 253.42 272.32 253.50 269.59 253.47 266.85 C 254.91 280.57 255.16 294.52 253.57 308.24 C 252.70 297.21 252.06 286.11 253.12 275.05 Z" fill="#ffffff" opacity="1.00" stroke="#ffffff" stroke-width="0.25"/>
<path d="M 267.23 284.79 C 268.25 295.65 267.92 306.59 267.58 317.47 C 267.03 317.47 265.94 317.46 265.39 317.45 C 265.73 306.55 266.45 295.66 267.23 284.79 Z" fill="#ffffff" opacity="1.00" stroke="#ffffff" stroke-width="0.25"/>
<path d="M 299.38 290.29 C 299.73 287.84 302.43 288.83 304.13 288.90 C 322.53 290.70 340.95 292.16 359.37 293.75 C 359.16 300.94 359.34 308.14 359.28 315.33 C 358.84 315.39 357.96 315.50 357.52 315.55 C 357.36 312.97 357.29 310.39 357.26 307.82 C 349.72 306.83 342.20 305.59 334.78 303.92 C 342.33 303.80 349.79 305.37 357.32 305.71 C 357.29 302.40 357.28 299.09 357.26 295.78 C 337.97 293.96 318.64 292.47 299.38 290.29 Z" fill="#ffffff" opacity="1.00" stroke="#ffffff" stroke-width="0.25"/>
<path d="M 153.41 293.85 C 173.14 293.01 192.77 290.51 212.50 289.61 C 212.53 290.08 212.61 291.04 212.64 291.51 C 193.49 292.85 174.38 294.65 155.24 296.15 C 155.23 299.37 155.20 302.58 155.15 305.79 C 161.67 305.63 168.16 303.96 174.70 304.81 C 168.24 305.87 161.80 307.11 155.29 307.74 C 154.99 310.60 155.26 313.63 153.97 316.29 C 152.75 314.04 153.19 311.45 153.19 309.00 C 153.32 303.95 153.07 298.89 153.41 293.85 Z" fill="#ffffff" opacity="1.00" stroke="#ffffff" stroke-width="0.25"/>
<path d="M 300.13 298.66 C 308.20 297.61 316.38 298.10 324.39 299.39 C 316.31 300.29 308.17 299.78 300.13 298.66 Z" fill="#feffff" opacity="1.00" stroke="#feffff" stroke-width="0.25"/>
<path d="M 185.43 301.19 C 194.93 300.37 204.64 299.48 214.10 300.88 C 211.19 301.91 208.04 301.73 205.01 301.85 C 198.48 301.85 191.92 302.02 185.43 301.19 Z" fill="#feffff" opacity="1.00" stroke="#feffff" stroke-width="0.25"/>
<path d="M 303.65 307.51 C 318.47 306.19 332.91 310.29 347.43 312.47 C 332.71 312.34 318.24 309.15 303.65 307.51 Z" fill="#ffffff" opacity="1.00" stroke="#ffffff" stroke-width="0.25"/>
<path d="M 169.94 311.18 C 178.34 309.50 186.93 307.76 195.52 308.95 C 187.14 310.69 178.51 311.93 169.94 311.18 Z" fill="#ffffff" opacity="1.00" stroke="#ffffff" stroke-width="0.25"/>
</svg>