<?xml version="1.0" encoding="UTF-8"?>
<!--Generator: Apple Native CoreSVG 341-->
<!DOCTYPE svg
PUBLIC "-//W3C//DTD SVG 1.1//EN"
       "http://www.w3.org/Graphics/SVG/1.1/DTD/svg11.dtd">
<svg version="1.1" xmlns="http://www.w3.org/2000/svg" xmlns:xlink="http://www.w3.org/1999/xlink" viewBox="0 0 3300 2200">
 <!--glyph: "", point size: 100.0, font version: "21.0d6e2", template writer version: "138.0.0"-->
 <style>.defaults {-sfsymbols-variable-value-mode:color;-sfsymbols-draw-reverses-motion-groups:true}

.monochrome-0 {-sfsymbols-motion-group:1;-sfsymbols-layer-tags:-10f5bbde09066dc1}
.monochrome-1 {-sfsymbols-motion-group:0;-sfsymbols-layer-tags:-10f5bbde09066dc1}

.multicolor-0:tintColor {-sfsymbols-motion-group:1;-sfsymbols-layer-tags:-10f5bbde09066dc1}
.multicolor-1:tintColor {-sfsymbols-motion-group:0;-sfsymbols-layer-tags:-10f5bbde09066dc1}

.hierarchical-0:primary {-sfsymbols-motion-group:1;-sfsymbols-layer-tags:-10f5bbde09066dc1}
.hierarchical-1:primary {-sfsymbols-motion-group:0;-sfsymbols-layer-tags:-10f5bbde09066dc1}

.SFSymbolsPreviewWireframe {fill:none;opacity:1.0;stroke:black;stroke-width:0.5}
</style>
 <g id="Notes">
  <rect height="2200" id="artboard" style="fill:white;opacity:1" width="3300" x="0" y="0"/>
  <line style="fill:none;stroke:black;opacity:1;stroke-width:0.5;" x1="263" x2="3036" y1="292" y2="292"/>
  <text style="stroke:none;fill:black;font-family:sans-serif;font-size:13;font-weight:bold;" transform="matrix(1 0 0 1 263 322)">Weight/Scale Variations</text>
  <text style="stroke:none;fill:black;font-family:sans-serif;font-size:13;text-anchor:middle;" transform="matrix(1 0 0 1 559.711 322)">Ultralight</text>
  <text style="stroke:none;fill:black;font-family:sans-serif;font-size:13;text-anchor:middle;" transform="matrix(1 0 0 1 856.422 322)">Thin</text>
  <text style="stroke:none;fill:black;font-family:sans-serif;font-size:13;text-anchor:middle;" transform="matrix(1 0 0 1 1153.13 322)">Light</text>
  <text style="stroke:none;fill:black;font-family:sans-serif;font-size:13;text-anchor:middle;" transform="matrix(1 0 0 1 1449.84 322)">Regular</text>
  <text style="stroke:none;fill:black;font-family:sans-serif;font-size:13;text-anchor:middle;" transform="matrix(1 0 0 1 1746.56 322)">Medium</text>
  <text style="stroke:none;fill:black;font-family:sans-serif;font-size:13;text-anchor:middle;" transform="matrix(1 0 0 1 2043.27 322)">Semibold</text>
  <text style="stroke:none;fill:black;font-family:sans-serif;font-size:13;text-anchor:middle;" transform="matrix(1 0 0 1 2339.98 322)">Bold</text>
  <text style="stroke:none;fill:black;font-family:sans-serif;font-size:13;text-anchor:middle;" transform="matrix(1 0 0 1 2636.69 322)">Heavy</text>
  <text style="stroke:none;fill:black;font-family:sans-serif;font-size:13;text-anchor:middle;" transform="matrix(1 0 0 1 2933.4 322)">Black</text>
  <line style="fill:none;stroke:black;opacity:1;stroke-width:0.5;" x1="263" x2="3036" y1="1903" y2="1903"/>
  <g transform="matrix(0.2 0 0 0.2 263 1933)">
   <path d="m46.2402 4.15039c21.7773 0 39.4531-17.627 39.4531-39.4043s-17.6758-39.4043-39.4531-39.4043c-21.7285 0-39.4043 17.627-39.4043 39.4043s17.6758 39.4043 39.4043 39.4043Zm0-7.42188c-17.6758 0-31.9336-14.3066-31.9336-31.9824s14.2578-31.9824 31.9336-31.9824 31.9824 14.3066 31.9824 31.9824-14.3066 31.9824-31.9824 31.9824Zm3.61328-17.7734v-28.4668c0-2.24609-1.46484-3.75977-3.71094-3.75977-2.14844 0-3.61328 1.51367-3.61328 3.75977v28.4668c0 2.19727 1.46484 3.71094 3.61328 3.71094 2.24609 0 3.71094-1.51367 3.71094-3.71094Zm-17.8223-10.5957h28.418c2.19727 0 3.71094-1.46484 3.71094-3.61328 0-2.19727-1.51367-3.71094-3.71094-3.71094h-28.418c-2.24609 0-3.75977 1.51367-3.75977 3.71094 0 2.14844 1.51367 3.61328 3.75977 3.61328Z"/>
  </g>
  <g transform="matrix(0.2 0 0 0.2 281.506 1933)">
   <path d="m58.5449 14.5508c27.4902 0 49.8047-22.3145 49.8047-49.8047s-22.3145-49.8047-49.8047-49.8047-49.8047 22.3145-49.8047 49.8047 22.3145 49.8047 49.8047 49.8047Zm0-8.30078c-22.9492 0-41.5039-18.5547-41.5039-41.5039s18.5547-41.5039 41.5039-41.5039 41.5039 18.5547 41.5039 41.5039-18.5547 41.5039-41.5039 41.5039Zm4.05273-23.0957v-36.9141c0-2.49023-1.70898-4.19922-4.15039-4.19922-2.39258 0-4.05273 1.70898-4.05273 4.19922v36.9141c0 2.44141 1.66016 4.15039 4.05273 4.15039 2.44141 0 4.15039-1.66016 4.15039-4.15039Zm-22.5586-14.4043h36.9629c2.44141 0 4.15039-1.61133 4.15039-4.00391 0-2.44141-1.70898-4.15039-4.15039-4.15039h-36.9629c-2.49023 0-4.15039 1.70898-4.15039 4.15039 0 2.39258 1.66016 4.00391 4.15039 4.00391Z"/>
  </g>
  <g transform="matrix(0.2 0 0 0.2 304.924 1933)">
   <path d="m74.8535 28.3203c35.1074 0 63.623-28.4668 63.623-63.5742s-28.5156-63.623-63.623-63.623-63.5742 28.5156-63.5742 63.623 28.4668 63.5742 63.5742 63.5742Zm0-9.08203c-30.127 0-54.4922-24.3652-54.4922-54.4922s24.3652-54.4922 54.4922-54.4922 54.4922 24.3652 54.4922 54.4922-24.3652 54.4922-54.4922 54.4922Zm4.44336-30.3223v-48.4863c0-2.73438-1.85547-4.63867-4.54102-4.63867-2.58789 0-4.44336 1.9043-4.44336 4.63867v48.4863c0 2.68555 1.85547 4.58984 4.44336 4.58984 2.68555 0 4.54102-1.85547 4.54102-4.58984Zm-28.7109-19.7754h48.4863c2.68555 0 4.58984-1.80664 4.58984-4.39453 0-2.73438-1.85547-4.58984-4.58984-4.58984h-48.4863c-2.73438 0-4.58984 1.85547-4.58984 4.58984 0 2.58789 1.85547 4.39453 4.58984 4.39453Z"/>
  </g>
  <text style="stroke:none;fill:black;font-family:sans-serif;font-size:13;font-weight:bold;" transform="matrix(1 0 0 1 263 1953)">Design Variations</text>
  <text style="stroke:none;fill:black;font-family:sans-serif;font-size:13;" transform="matrix(1 0 0 1 263 1971)">Symbols are supported in up to nine weights and three scales.</text>
  <text style="stroke:none;fill:black;font-family:sans-serif;font-size:13;" transform="matrix(1 0 0 1 263 1989)">For optimal layout with text and other symbols, vertically align</text>
  <text style="stroke:none;fill:black;font-family:sans-serif;font-size:13;" transform="matrix(1 0 0 1 263 2007)">symbols with the adjacent text.</text>
  <line style="fill:none;stroke:#00AEEF;stroke-width:0.5;opacity:1.0;" x1="776" x2="776" y1="1919" y2="1933"/>
  <g transform="matrix(0.2 0 0 0.2 776 1933)">
   <path d="m16.5527 0.78125c2.58789 0 3.85742-0.976562 4.78516-3.71094l20.5566-57.5195h0.244141l20.6055 57.5195c0.927734 2.73438 2.19727 3.71094 4.73633 3.71094 2.58789 0 4.24805-1.5625 4.24805-4.00391 0-0.830078-0.146484-1.61133-0.537109-2.63672l-22.9004-60.9863c-1.12305-2.97852-3.125-4.49219-6.25-4.49219-3.02734 0-5.07812 1.46484-6.15234 4.44336l-22.9004 61.084c-0.390625 1.02539-0.537109 1.80664-0.537109 2.63672 0 2.44141 1.5625 3.95508 4.10156 3.95508Zm10.2051-20.9473h30.6641c2.00195 0 3.66211-1.66016 3.66211-3.66211 0-2.05078-1.66016-3.66211-3.66211-3.66211h-30.6641c-2.00195 0-3.66211 1.61133-3.66211 3.66211 0 2.00195 1.66016 3.66211 3.66211 3.66211Z"/>
  </g>
  <line style="fill:none;stroke:#00AEEF;stroke-width:0.5;opacity:1.0;" x1="792.836" x2="792.836" y1="1919" y2="1933"/>
  <text style="stroke:none;fill:black;font-family:sans-serif;font-size:13;font-weight:bold;" transform="matrix(1 0 0 1 776 1953)">Margins</text>
  <text style="stroke:none;fill:black;font-family:sans-serif;font-size:13;" transform="matrix(1 0 0 1 776 1971)">Leading and trailing margins on the left and right side of each symbol</text>
  <text style="stroke:none;fill:black;font-family:sans-serif;font-size:13;" transform="matrix(1 0 0 1 776 1989)">can be adjusted by modifying the x-location of the margin guidelines.</text>
  <text style="stroke:none;fill:black;font-family:sans-serif;font-size:13;" transform="matrix(1 0 0 1 776 2007)">Modifications are automatically applied proportionally to all</text>
  <text style="stroke:none;fill:black;font-family:sans-serif;font-size:13;" transform="matrix(1 0 0 1 776 2025)">scales and weights.</text>
  <g transform="matrix(0.2 0 0 0.2 1289 1933)">
   <path d="m14.209 13.1348 7.86133 7.86133c4.29688 4.39453 9.32617 4.10156 13.8672-1.02539l60.6934-68.2129-4.88281-4.88281-60.2539 67.6758c-1.80664 1.95312-3.4668 2.44141-5.81055 0.0976562l-5.17578-5.12695c-2.29492-2.29492-1.80664-3.95508 0.195312-5.81055l67.4805-62.1582-4.88281-4.83398-68.0664 62.5977c-4.98047 4.58984-5.32227 9.47266-1.02539 13.8184Zm44.873-97.4609c-2.05078 2.00195-2.24609 4.88281-1.07422 6.78711 1.12305 1.80664 3.4668 3.02734 6.5918 2.24609 5.85938-1.66016 12.5977-2.39258 18.8965 0.927734l-2.68555 7.12891c-1.61133 4.00391-0.732422 6.88477 1.70898 9.42383l10.2539 10.3027c2.34375 2.39258 4.54102 2.44141 7.08008 1.95312l4.44336-0.732422 2.58789 2.53906-0.195312 2.24609c-0.0976562 2.29492 0.537109 4.29688 2.7832 6.49414l3.36914 3.32031c2.29492 2.29492 5.51758 2.49023 7.8125 0.195312l12.9883-13.0371c2.29492-2.34375 2.14844-5.37109-0.195312-7.66602l-3.41797-3.41797c-2.19727-2.19727-4.05273-3.02734-6.34766-2.88086l-2.34375 0.244141-2.44141-2.44141 1.02539-4.6875c0.634766-2.73438-0.244141-4.98047-2.88086-7.61719l-11.2793-11.1816c-12.9395-12.8418-35.5957-11.0352-46.6797-0.146484Zm7.08008 2.05078c8.78906-6.39648 25.9766-5.66406 33.6914 1.95312l12.3047 12.207c1.02539 1.02539 1.2207 1.80664 0.927734 3.32031l-1.46484 6.64062 6.73828 6.68945 4.39453-0.244141c1.12305-0.0488281 1.51367 0.0488281 2.34375 0.878906l2.53906 2.49023-10.8398 10.8398-2.49023-2.49023c-0.830078-0.878906-0.976562-1.2207-0.927734-2.39258l0.292969-4.3457-6.68945-6.73828-6.83594 1.17188c-1.41602 0.292969-2.05078 0.195312-3.17383-0.878906l-8.93555-8.88672c-1.07422-1.02539-1.17188-1.70898-0.488281-3.36914l4.58984-11.4746c-6.10352-6.34766-17.041-7.51953-25.5859-4.58984-0.683594 0.244141-0.927734-0.390625-0.390625-0.78125Z"/>
  </g>
  <text style="stroke:none;fill:black;font-family:sans-serif;font-size:13;font-weight:bold;" transform="matrix(1 0 0 1 1289 1953)">Exporting</text>
  <text style="stroke:none;fill:black;font-family:sans-serif;font-size:13;" transform="matrix(1 0 0 1 1289 1971)">Symbols should be outlined when exporting to ensure the</text>
  <text style="stroke:none;fill:black;font-family:sans-serif;font-size:13;" transform="matrix(1 0 0 1 1289 1989)">design is preserved when submitting to Xcode.</text>
  <text id="template-version" style="stroke:none;fill:black;font-family:sans-serif;font-size:13;text-anchor:end;" transform="matrix(1 0 0 1 3036 1933)">Template v.6.0</text>
  <text style="stroke:none;fill:black;font-family:sans-serif;font-size:13;text-anchor:end;" transform="matrix(1 0 0 1 3036 1951)">Requires Xcode 16 or greater</text>
  <text id="descriptive-name" style="stroke:none;fill:black;font-family:sans-serif;font-size:13;text-anchor:end;" transform="matrix(1 0 0 1 3036 1969)">Generated from figure.kubbIcon</text>
  <text style="stroke:none;fill:black;font-family:sans-serif;font-size:13;text-anchor:end;" transform="matrix(1 0 0 1 3036 1987)">Typeset at 100.0 points</text>
  <text style="stroke:none;fill:black;font-family:sans-serif;font-size:13;" transform="matrix(1 0 0 1 263 726)">Small</text>
  <text style="stroke:none;fill:black;font-family:sans-serif;font-size:13;" transform="matrix(1 0 0 1 263 1156)">Medium</text>
  <text style="stroke:none;fill:black;font-family:sans-serif;font-size:13;" transform="matrix(1 0 0 1 263 1586)">Large</text>
 </g>
 <g id="Guides">
  <g id="H-reference" style="fill:#27AAE1;stroke:none;" transform="matrix(1 0 0 1 339 696)">
   <path d="M0.993654 0L3.63775 0L29.3281-67.1323L30.0303-67.1323L30.0303-70.459L28.1226-70.459ZM11.6885-24.4799L46.9815-24.4799L46.2315-26.7285L12.4385-26.7285ZM55.1196 0L57.7637 0L30.6382-70.459L29.4326-70.459L29.4326-67.1323Z"/>
  </g>
  <line id="Baseline-S" style="fill:none;stroke:#27AAE1;opacity:1;stroke-width:0.5;" x1="263" x2="3036" y1="696" y2="696"/>
  <line id="Capline-S" style="fill:none;stroke:#27AAE1;opacity:1;stroke-width:0.5;" x1="263" x2="3036" y1="625.541" y2="625.541"/>
  <g id="H-reference" style="fill:#27AAE1;stroke:none;" transform="matrix(1 0 0 1 339 1126)">
   <path d="M0.993654 0L3.63775 0L29.3281-67.1323L30.0303-67.1323L30.0303-70.459L28.1226-70.459ZM11.6885-24.4799L46.9815-24.4799L46.2315-26.7285L12.4385-26.7285ZM55.1196 0L57.7637 0L30.6382-70.459L29.4326-70.459L29.4326-67.1323Z"/>
  </g>
  <line id="Baseline-M" style="fill:none;stroke:#27AAE1;opacity:1;stroke-width:0.5;" x1="263" x2="3036" y1="1126" y2="1126"/>
  <line id="Capline-M" style="fill:none;stroke:#27AAE1;opacity:1;stroke-width:0.5;" x1="263" x2="3036" y1="1055.54" y2="1055.54"/>
  <g id="H-reference" style="fill:#27AAE1;stroke:none;" transform="matrix(1 0 0 1 339 1556)">
   <path d="M0.993654 0L3.63775 0L29.3281-67.1323L30.0303-67.1323L30.0303-70.459L28.1226-70.459ZM11.6885-24.4799L46.9815-24.4799L46.2315-26.7285L12.4385-26.7285ZM55.1196 0L57.7637 0L30.6382-70.459L29.4326-70.459L29.4326-67.1323Z"/>
  </g>
  <line id="Baseline-L" style="fill:none;stroke:#27AAE1;opacity:1;stroke-width:0.5;" x1="263" x2="3036" y1="1556" y2="1556"/>
  <line id="Capline-L" style="fill:none;stroke:#27AAE1;opacity:1;stroke-width:0.5;" x1="263" x2="3036" y1="1485.54" y2="1485.54"/>
  <line id="right-margin-Black-S" style="fill:none;stroke:#00AEEF;stroke-width:0.5;opacity:1.0;" x1="2987.6" x2="2987.6" y1="600.785" y2="720.121"/>
  <line id="left-margin-Black-S" style="fill:none;stroke:#00AEEF;stroke-width:0.5;opacity:1.0;" x1="2879.2" x2="2879.2" y1="600.785" y2="720.121"/>
  <line id="right-margin-Regular-S" style="fill:none;stroke:#00AEEF;stroke-width:0.5;opacity:1.0;" x1="1501.19" x2="1501.19" y1="600.785" y2="720.121"/>
  <line id="left-margin-Regular-S" style="fill:none;stroke:#00AEEF;stroke-width:0.5;opacity:1.0;" x1="1398.5" x2="1398.5" y1="600.785" y2="720.121"/>
  <line id="right-margin-Ultralight-S" style="fill:none;stroke:#FF3B30;stroke-width:0.5;opacity:1.0;" x1="607.285" x2="607.285" y1="600.785" y2="720.121"/>
  <line id="left-margin-Ultralight-S" style="fill:none;stroke:#FF3B30;stroke-width:0.5;opacity:1.0;" x1="512.137" x2="512.137" y1="600.785" y2="720.121"/>
 </g>
 <g id="Symbols">
  <g id="Black-S" transform="matrix(1 0 0 1 2879.2 696)">
   <path class="monochrome-0 multicolor-0:tintColor hierarchical-0:primary SFSymbolsPreviewWireframe" d="M43.8394-56.9616C46.8738-56.9616 49.4806-56.0389 51.7662-53.9519L52.2193-53.5193L62.4283-43.2614L80.2877-37.9568C82.5715-37.2815 83.8131-34.8466 83.191-32.6687L83.189-32.6618C82.3096-29.8682 79.5148-29.1956 77.8492-29.7146L58.9039-35.3786L58.8971-35.3806C58.2856-35.5844 57.6133-35.9436 57.1392-36.4177L47.6656-45.9392C47.4237-46.1806 47.1492-46.2573 46.9146-46.2175C46.6801-46.1776 46.4517-46.0165 46.3121-45.7175L46.3092-45.7107L37.943-29.0271L50.9469-16.1198C51.4105-15.7412 51.7417-15.1774 51.9517-14.6394L52.0357-14.4079L52.0367-14.404L58.6285 6.39579L58.691 6.60959C59.2798 8.81849 58.1372 11.0859 55.8258 11.7893L55.8199 11.7913C53.7646 12.3563 51.2656 11.4856 50.4849 8.98759L44.1597-10.6687L32.0553-21.0232L32.0416-21.0368C31.871-21.2073 31.6967-21.2068 31.5738-21.1404C31.4435-21.0698 31.3279-20.9008 31.3443-20.6501L32.3209-9.76341L32.3443-9.48121C32.39-8.83921 32.3632-8.29771 32.2056-7.80151C32.0246-7.23171 31.6779-6.74771 31.1246-6.24291L31.1256-6.24191L14.0817 10.802C12.2655 12.5658 9.66994 12.3014 8.11877 10.802L8.11584 10.7991C6.40904 9.09209 6.40515 6.29709 8.06701 4.63499L23.3472-10.5974L20.5992-21.4929L20.4928-21.9255C19.4501-26.403 20.0718-31.1715 22.1314-35.2429L27.9898-47.0573L27.9928-47.0632C28.3479-47.734 27.9201-48.4048 27.2379-48.405L19.3355-48.405L13.0084-35.7019L13.0074-35.6989C11.9179-33.572 9.42365-32.7965 7.30334-33.8308C5.06557-34.8261 4.3523-37.4275 5.38342-39.49L12.9518-54.5779C13.6766-56.027 15.1291-56.9615 16.7887-56.9616ZM93.5748-45.6286L103.801-39.7243L101.349-35.4773L97.7877-35.6911L87.5611-41.5954L90.0133-45.8425ZM44.1324-77.8601C48.908-77.86 52.8297-73.9893 52.8297-69.1628C52.8297-64.2885 48.909-60.4168 44.1324-60.4167C39.2102-60.4169 35.3375-64.2876 35.3375-69.1628C35.3375-73.9902 39.2112-77.8599 44.1324-77.8601Z"/>
   <path class="monochrome-1 multicolor-1:tintColor hierarchical-1:primary SFSymbolsPreviewWireframe" d="M16.7887-56.4616C15.3236-56.4615 14.0415-55.6381 13.3991-54.3532L5.83069-39.2654C4.93927-37.4819 5.52201-35.2889 7.33557-34.3689L7.51428-34.2839L7.52307-34.28L7.7008-34.1989C9.54284-33.4059 11.6309-34.1095 12.5621-35.9275L18.9576-48.7663L19.026-48.905L27.2379-48.905C28.311-48.9048 28.9551-47.8233 28.4371-46.8357L28.4381-46.8347L22.5787-35.0183L22.5777-35.0163C20.5696-31.0466 19.9647-26.3986 20.9801-22.0388L21.0836-21.6179L23.8668-10.5818L23.9019-10.4431L23.8013-10.3435L8.42053 4.98859C6.95867 6.45059 6.95382 8.92679 8.46643 10.4427L8.59826 10.5647C9.98718 11.7875 12.1814 11.9498 13.733 10.4427L30.7721-6.59541L30.7799-6.60421L30.7808-6.60321C31.2963-7.07191 31.5825-7.48831 31.7301-7.95291C31.8795-8.42321 31.895-8.96901 31.8228-9.71461L31.8228-9.71651L30.8463-20.6052L30.8453-20.6101C30.8146-21.0401 31.0163-21.4066 31.3365-21.5798C31.6601-21.7547 32.0639-21.7086 32.3795-21.404L44.5387-11.0036L44.5924-10.9568L44.6139-10.8894L50.9615 8.83719L50.9625 8.83909C51.6461 11.0264 53.8323 11.8161 55.6822 11.3098C57.787 10.6682 58.795 8.56979 58.1519 6.54809L51.5611-14.2497L51.484-14.4616C51.2909-14.955 50.9977-15.44 50.6168-15.7448L50.606-15.7536L50.5963-15.7624L37.4615-28.7995L37.3336-28.9275L37.4146-29.0896L45.8619-45.9353C46.0645-46.3645 46.4207-46.6409 46.8306-46.7107C47.1913-46.7719 47.5685-46.6688 47.8873-46.4118L48.0201-46.2927L57.4928-36.7712L57.6529-36.6238C58.046-36.2879 58.565-36.0186 59.0553-35.8552L77.9928-30.1931L77.9957-30.1921C79.4553-29.736 81.9323-30.3341 82.7125-32.8122C83.2576-34.7339 82.1552-36.8833 80.1451-37.4773L62.2252-42.8005L62.1637-42.8181L62.1187-42.863L51.8648-53.1657C49.5706-55.4596 46.9497-56.4616 43.8394-56.4616ZM98.2808-36.1618L101.071-35.9948L103.042-39.4079L100.252-39.5759ZM88.2447-41.7781L97.7701-36.2781L99.7701-39.7429L90.2447-45.2429ZM100.186-40.0798L102.419-39.946L93.4263-45.1374L91.1949-45.2712ZM44.1324-77.3601C39.4835-77.3599 35.8375-73.7103 35.8375-69.1628C35.8375-64.5656 39.4845-60.9169 44.1324-60.9167C48.6328-60.9168 52.3297-64.5647 52.3297-69.1628C52.3297-73.7112 48.6338-77.36 44.1324-77.3601Z"/>
  </g>
  <g id="Regular-S" transform="matrix(1 0 0 1 1398.5 696)">
   <path class="monochrome-0 multicolor-0:tintColor hierarchical-0:primary SFSymbolsPreviewWireframe" d="M40.4401-57.6743C43.4745-57.6743 46.0813-56.7516 48.3669-54.6646L48.82-54.232L59.029-43.9741L76.8884-38.6695C79.1722-37.9942 80.4138-35.5593 79.7917-33.3814L79.7897-33.3745C78.9103-30.5809 76.1155-29.9083 74.4499-30.4273L55.5046-36.0913L55.4978-36.0933C54.8863-36.2971 54.214-36.6563 53.7399-37.1304L44.2663-46.6519C44.0244-46.8933 43.7499-46.97 43.5153-46.9302C43.2808-46.8903 43.0524-46.7292 42.9128-46.4302L42.9099-46.4234L34.5437-29.7398L47.5476-16.8325C48.0112-16.4539 48.3424-15.8901 48.5524-15.3521L48.6364-15.1206L48.6374-15.1167L55.2292 5.68313L55.2917 5.89693C55.8805 8.10583 54.7379 10.3732 52.4265 11.0766L52.4206 11.0786C50.3653 11.6436 47.8663 10.7729 47.0856 8.27493L40.7604-11.3814L28.656-21.7359L28.6423-21.7495C28.4717-21.92 28.2974-21.9195 28.1745-21.8531C28.0442-21.7825 27.9286-21.6135 27.945-21.3628L28.9216-10.4761L28.945-10.1939C28.9907-9.55187 28.9639-9.01037 28.8063-8.51417C28.6253-7.94437 28.2786-7.46037 27.7253-6.95557L27.7263-6.95457L10.6823 10.0893C8.8662 11.8531 6.2706 11.5887 4.71943 10.0893L4.7165 10.0864C3.0097 8.37943 3.00581 5.58443 4.66767 3.92233L19.9479-11.3101L17.1999-22.2056L17.0935-22.6382C16.0508-27.1157 16.6725-31.8842 18.7321-35.9556L24.5905-47.77L24.5935-47.7759C24.9486-48.4467 24.5208-49.1175 23.8386-49.1177L15.9362-49.1177L9.60908-36.4146L9.6081-36.4116C8.51856-34.2847 6.02431-33.5092 3.904-34.5435C1.66623-35.5388 0.952957-38.1402 1.98408-40.2027L9.55244-55.2906C10.2772-56.7397 11.7298-57.6742 13.3894-57.6743ZM90.1755-46.3413L100.402-40.437L97.9499-36.19L94.3884-36.4038L84.1618-42.3081L86.614-46.5552ZM40.7331-78.5728C45.5087-78.5726 49.4304-74.7019 49.4304-69.8755C49.4304-65.0012 45.5097-61.1295 40.7331-61.1294C35.8109-61.1296 31.9382-65.0003 31.9382-69.8755C31.9382-74.7028 35.8119-78.5726 40.7331-78.5728Z"/>
   <path class="monochrome-1 multicolor-1:tintColor hierarchical-1:primary SFSymbolsPreviewWireframe" d="M13.3894-57.1743C11.9243-57.1742 10.6421-56.3508 9.99971-55.0659L2.43135-39.9781C1.53992-38.1946 2.12266-36.0016 3.93623-35.0816L4.11494-34.9966L4.12373-34.9927L4.30146-34.9116C6.1435-34.1186 8.23153-34.8222 9.16279-36.6402L15.5583-49.479L15.6267-49.6177L23.8386-49.6177C24.9117-49.6175 25.5558-48.536 25.0378-47.5484L25.0388-47.5474L19.1794-35.731L19.1784-35.729C17.1703-31.7593 16.5654-27.1113 17.5808-22.7515L17.6843-22.3306L20.4675-11.2945L20.5026-11.1558L20.402-11.0562L5.02119 4.27593C3.55933 5.73793 3.55448 8.21413 5.06709 9.73003L5.19892 9.85203C6.58784 11.0748 8.78208 11.2371 10.3337 9.73003L27.3728-7.30807L27.3806-7.31687L27.3815-7.31587C27.897-7.78457 28.1832-8.20097 28.3308-8.66557C28.4802-9.13587 28.4957-9.68167 28.4235-10.4273L28.4235-10.4292L27.447-21.3179L27.446-21.3228C27.4153-21.7528 27.617-22.1193 27.9372-22.2925C28.2608-22.4674 28.6646-22.4213 28.9802-22.1167L41.1394-11.7163L41.1931-11.6695L41.2146-11.6021L47.5622 8.12453L47.5632 8.12643C48.2468 10.3137 50.433 11.1034 52.2829 10.5971C54.3877 9.95553 55.3957 7.85713 54.7526 5.83543L48.1618-14.9624L48.0847-15.1743C47.8916-15.6677 47.5984-16.1527 47.2175-16.4575L47.2067-16.4663L47.197-16.4751L34.0622-29.5122L33.9343-29.6402L34.0153-29.8023L42.4626-46.648C42.6652-47.0772 43.0214-47.3536 43.4313-47.4234C43.792-47.4846 44.1692-47.3815 44.488-47.1245L44.6208-47.0054L54.0935-37.4839L54.2536-37.3365C54.6467-37.0006 55.1657-36.7313 55.656-36.5679L74.5935-30.9058L74.5964-30.9048C76.056-30.4487 78.533-31.0468 79.3132-33.5249C79.8583-35.4466 78.7559-37.596 76.7458-38.19L58.8259-43.5132L58.7644-43.5308L58.7194-43.5757L48.4655-53.8784C46.1713-56.1723 43.5504-57.1743 40.4401-57.1743ZM94.8815-36.8745L97.6716-36.7075L99.6423-40.1206L96.8522-40.2886ZM84.8454-42.4908L94.3708-36.9908L96.3708-40.4556L86.8454-45.9556ZM96.7868-40.7925L99.0192-40.6587L90.027-45.8501L87.7956-45.9839ZM40.7331-78.0728C36.0842-78.0726 32.4382-74.4229 32.4382-69.8755C32.4382-65.2783 36.0852-61.6296 40.7331-61.6294C45.2335-61.6295 48.9304-65.2774 48.9304-69.8755C48.9304-74.4239 45.2345-78.0726 40.7331-78.0728Z"/>
  </g>
  <g id="Ultralight-S" transform="matrix(1 0 0 1 512.137 696)">
   <path class="monochrome-0 multicolor-0:tintColor hierarchical-0:primary SFSymbolsPreviewWireframe" d="M36.4862-58.3622C39.5206-58.3622 42.1274-57.4395 44.413-55.3525L44.8661-54.9199L55.0751-44.662L72.9345-39.3574C75.2183-38.6821 76.4599-36.2472 75.8378-34.0693L75.8358-34.0624C74.9564-31.2688 72.1616-30.5962 70.496-31.1152L51.5507-36.7792L51.5439-36.7812C50.9324-36.985 50.2601-37.3442 49.786-37.8183L40.3124-47.3398C40.0705-47.5812 39.796-47.6579 39.5614-47.6181C39.3269-47.5782 39.0985-47.4171 38.9589-47.1181L38.956-47.1113L30.5898-30.4277L43.5937-17.5204C44.0573-17.1418 44.3885-16.578 44.5985-16.04L44.6825-15.8085L44.6835-15.8046L51.2753 4.99517L51.3378 5.20897C51.9266 7.41787 50.784 9.68527 48.4726 10.3887L48.4667 10.3907C46.4114 10.9557 43.9124 10.085 43.1317 7.58697L36.8065-12.0693L24.7021-22.4238L24.6884-22.4374C24.5178-22.6079 24.3435-22.6074 24.2206-22.541C24.0903-22.4704 23.9747-22.3014 23.9911-22.0507L24.9677-11.164L24.9911-10.8818C25.0368-10.2398 25.01-9.69833 24.8524-9.20213C24.6714-8.63233 24.3247-8.14833 23.7714-7.64353L23.7724-7.64253L6.72845 9.40137C4.91233 11.1652 2.31673 10.9008 0.76556 9.40137L0.76263 9.39847C-0.94417 7.69147-0.94806 4.89647 0.7138 3.23437L15.994-11.998L13.246-22.8935L13.1396-23.3261C12.0969-27.8036 12.7186-32.5721 14.7782-36.6435L20.6366-48.4579L20.6396-48.4638C20.9947-49.1346 20.5669-49.8054 19.8847-49.8056L11.9823-49.8056L5.65521-37.1025L5.65423-37.0995C4.56469-34.9726 2.07044-34.1971-0.04987-35.2314C-2.28764-36.2267-3.00091-38.8281-1.96979-40.8906L5.59857-55.9785C6.32337-57.4276 7.77593-58.3621 9.43553-58.3622ZM86.2216-47.0292L96.4481-41.1249L93.996-36.8779L90.4345-37.0917L80.2079-42.996L82.6601-47.2431ZM36.7792-79.2607C41.5548-79.2606 45.4765-75.3899 45.4765-70.5634C45.4765-65.6891 41.5558-61.8174 36.7792-61.8173C31.857-61.8175 27.9843-65.6882 27.9843-70.5634C27.9843-75.3908 31.858-79.2606 36.7792-79.2607Z"/>
   <path class="monochrome-1 multicolor-1:tintColor hierarchical-1:primary SFSymbolsPreviewWireframe" d="M9.43553-57.8622C7.97043-57.8621 6.68824-57.0387 6.04584-55.7538L-1.52252-40.666C-2.41395-38.8825-1.83121-36.6895-0.01764-35.7695L0.16107-35.6845L0.16986-35.6806L0.34759-35.5995C2.18963-34.8065 4.27766-35.5101 5.20892-37.3281L11.6044-50.1669L11.6728-50.3056L19.8847-50.3056C20.9578-50.3054 21.6019-49.2239 21.0839-48.2363L21.0849-48.2353L15.2255-36.4189L15.2245-36.4169C13.2164-32.4472 12.6115-27.7992 13.6269-23.4394L13.7304-23.0185L16.5136-11.9824L16.5487-11.8437L16.4481-11.7441L1.06732 3.58797C-0.39454 5.04997-0.39939 7.52617 1.11322 9.04207L1.24505 9.16407C2.63397 10.3869 4.82821 10.5492 6.37982 9.04207L23.4189-7.99603L23.4267-8.00483L23.4276-8.00383C23.9431-8.47253 24.2293-8.88893 24.3769-9.35353C24.5263-9.82383 24.5418-10.3696 24.4696-11.1152L24.4696-11.1171L23.4931-22.0058L23.4921-22.0107C23.4614-22.4407 23.6631-22.8072 23.9833-22.9804C24.3069-23.1553 24.7107-23.1092 25.0263-22.8046L37.1855-12.4042L37.2392-12.3574L37.2607-12.29L43.6083 7.43657L43.6093 7.43847C44.2929 9.62577 46.4791 10.4155 48.329 9.90917C50.4338 9.26757 51.4418 7.16917 50.7987 5.14747L44.2079-15.6503L44.1308-15.8622C43.9377-16.3556 43.6445-16.8406 43.2636-17.1454L43.2528-17.1542L43.2431-17.163L30.1083-30.2001L29.9804-30.3281L30.0614-30.4902L38.5087-47.3359C38.7113-47.7651 39.0675-48.0415 39.4774-48.1113C39.8381-48.1725 40.2153-48.0694 40.5341-47.8124L40.6669-47.6933L50.1396-38.1718L50.2997-38.0244C50.6928-37.6885 51.2118-37.4192 51.7021-37.2558L70.6396-31.5937L70.6425-31.5927C72.1021-31.1366 74.5791-31.7347 75.3593-34.2128C75.9044-36.1345 74.802-38.2839 72.7919-38.8779L54.872-44.2011L54.8105-44.2187L54.7655-44.2636L44.5116-54.5663C42.2174-56.8602 39.5965-57.8622 36.4862-57.8622ZM90.9276-37.5624L93.7177-37.3954L95.6884-40.8085L92.8983-40.9765ZM80.8915-43.1787L90.4169-37.6787L92.4169-41.1435L82.8915-46.6435ZM92.8329-41.4804L95.0653-41.3466L86.0731-46.538L83.8417-46.6718ZM36.7792-78.7607C32.1303-78.7606 28.4843-75.1109 28.4843-70.5634C28.4843-65.9662 32.1313-62.3175 36.7792-62.3173C41.2796-62.3174 44.9765-65.9653 44.9765-70.5634C44.9765-75.1119 41.2806-78.7606 36.7792-78.7607Z"/>
  </g>
 </g>
</svg>
